<svg id="Group_2403" data-name="Group 2403" xmlns="http://www.w3.org/2000/svg" xmlns:xlink="http://www.w3.org/1999/xlink" width="15.56" height="10.381" viewBox="0 0 15.56 10.381">
  <defs>
    <clipPath id="clip-path">
      <rect id="Rectangle_508" data-name="Rectangle 508" width="15.56" height="10.381" fill="#e54727"/>
    </clipPath>
  </defs>
  <g id="Group_2402" data-name="Group 2402" clip-path="url(#clip-path)">
    <path id="Path_1848" data-name="Path 1848" d="M0,9.719V.662A.851.851,0,0,1,.986,0H9.5q2.581,0,5.162,0A.8.8,0,0,1,15.3.225a2.584,2.584,0,0,1,.257.437V9.719a.853.853,0,0,1-.987.661H5.252q-2.186,0-4.372,0a.775.775,0,0,1-.622-.225A2.653,2.653,0,0,1,0,9.719M14.952.988l-.158.115L8.681,5.687a1.415,1.415,0,0,1-1.795,0L.75,1.089C.708,1.058.664,1.029.613.993V9.326c.057-.068.1-.112.134-.159L3.633,5.6c.112-.138.219-.279.338-.41a.292.292,0,0,1,.41-.028.3.3,0,0,1,.051.4,1.1,1.1,0,0,1-.075.1L1.147,9.625c-.036.044-.07.091-.11.143H14.523c-.038-.051-.064-.088-.092-.123L11.792,6.387c-.217-.268-.436-.533-.648-.8a.291.291,0,0,1,.037-.421A.3.3,0,0,1,11.6,5.2c.024.026.045.055.067.082l3.164,3.908c.032.039.066.076.117.135ZM1.113.606c.05.042.072.061.1.079Q4.245,2.963,7.282,5.241A.812.812,0,0,0,8.3,5.228L14.331.7c.032-.024.06-.052.108-.094Z" transform="translate(0 0)" fill="#e54727"/>
  </g>
</svg>
