<svg id="Group_2405" data-name="Group 2405" xmlns="http://www.w3.org/2000/svg" xmlns:xlink="http://www.w3.org/1999/xlink" width="13.74" height="13.756" viewBox="0 0 13.74 13.756">
  <defs>
    <clipPath id="clip-path">
      <rect id="Rectangle_509" data-name="Rectangle 509" width="13.74" height="13.756" fill="#e54727"/>
    </clipPath>
  </defs>
  <g id="Group_2404" data-name="Group 2404" clip-path="url(#clip-path)">
    <path id="Path_1849" data-name="Path 1849" d="M9.91,13.756c-.2-.037-.4-.066-.6-.111a6.087,6.087,0,0,1-1.6-.719A17.881,17.881,0,0,1,.375,5.14,3.476,3.476,0,0,1,.027,3.965.464.464,0,0,0,0,3.878V3.19c.035-.178.062-.358.105-.533A3.685,3.685,0,0,1,1.033.966C1.257.733,1.485.5,1.717.279a.887.887,0,0,1,1.3.005Q4.251,1.513,5.479,2.749a.886.886,0,0,1,0,1.3c-.32.328-.648.649-.971.973a.64.64,0,0,0-.1.944c.144.217.3.427.448.64a.315.315,0,1,1-.5.371c-.18-.249-.36-.5-.526-.756a1.23,1.23,0,0,1,.164-1.562c.331-.339.67-.671,1-1.007.19-.19.19-.314,0-.5Q3.807,1.957,2.618.77c-.192-.191-.317-.194-.5,0a9.082,9.082,0,0,0-.856.908A2.94,2.94,0,0,0,.957,4.9,17.379,17.379,0,0,0,4.974,10.21a16.523,16.523,0,0,0,3.9,2.618,3.065,3.065,0,0,0,3.425-.535c.24-.224.468-.46.7-.694a.279.279,0,0,0,0-.449Q11.784,9.933,10.567,8.72a.281.281,0,0,0-.459.011c-.329.327-.655.657-.984.983a1.234,1.234,0,0,1-1.66.163c-.349-.236-.685-.491-1.023-.743a.321.321,0,0,1-.1-.472c.117-.153.3-.159.483-.023.331.243.661.489,1,.724a.608.608,0,0,0,.848-.075c.339-.332.67-.67,1.007-1a.893.893,0,0,1,1.343,0q1.212,1.208,2.42,2.42a.9.9,0,0,1,0,1.345c-.253.255-.5.515-.769.755a3.628,3.628,0,0,1-2.091.926.775.775,0,0,0-.105.026Z" transform="translate(0 0)" fill="#e54727"/>
    <path id="Path_1850" data-name="Path 1850" d="M168.109,243.179a.311.311,0,0,1-.3.316.316.316,0,0,1-.318-.316.308.308,0,0,1,.311-.3.3.3,0,0,1,.308.3" transform="translate(-162.255 -235.282)" fill="#e54727"/>
  </g>
</svg>
